<svg width="36" height="36" viewBox="0 0 36 36" fill="none" xmlns="http://www.w3.org/2000/svg">
<mask id="mask0" mask-type="alpha" maskUnits="userSpaceOnUse" x="0" y="0" width="36" height="36">
<circle cx="18" cy="18" r="18" fill="#C4C4C4"/>
</mask>
<g mask="url(#mask0)">
<rect width="36" height="36" fill="#151727"/>
<path fill-rule="evenodd" clip-rule="evenodd" d="M25.1099 20.7174L13.446 13.803V7.71741L10.9512 9.19432V15.2826L22.6177 22.197V28.2826L25.1099 26.803V20.7174Z" fill="#39D1A4"/>
<path d="M22.876 8.17695L24.8506 9.34838V13.9969L22.876 12.8255V8.17695ZM22.6172 7.71741V12.9796L25.1094 14.4565V9.19963L22.6172 7.72006V7.71741Z" fill="#39D1A4"/>
<path d="M11.21 22.003L13.1872 23.1745V27.823L11.21 26.6516V22.003ZM10.9512 21.5435V26.803L13.446 28.2826V23.0124L10.9512 21.5355V21.5435Z" fill="#39D1A4"/>
<path d="M26.7627 10.4826L28.7399 11.654V16.2999L26.7627 15.1285V10.4826ZM26.5039 10.0231V15.2826L28.9987 16.7621V11.5L26.5039 10.0231Z" fill="#39D1A4"/>
<path fill-rule="evenodd" clip-rule="evenodd" d="M18.7286 8.37086L18.0298 7.95648L17.3337 8.37086V11.5L29.0002 18.4144V24.5L26.5054 25.9769V19.8913L14.8389 12.9796V6.89129L18.0298 5L21.2234 6.89129V12.1534L18.7286 10.6739V8.37086Z" fill="#39D1A4"/>
<path fill-rule="evenodd" clip-rule="evenodd" d="M18.7281 27.6291L18.0293 28.0435L17.3332 27.6291V25.3261L14.8384 23.8465V29.1087L18.0293 31L21.2229 29.1087V23.0204L9.55633 16.1087V10.0231L7.06152 11.5V17.5883L18.7281 24.5V27.6291Z" fill="#39D1A4"/>
<path d="M7.31251 19.7L9.28972 20.8715V25.5173L7.31251 24.3406V19.7ZM7.05371 19.2405V24.5L9.54851 25.9769V20.7174L7.05371 19.2405Z" fill="#39D1A4"/>
</g>
</svg>
